<svg viewBox="0 0 40 40" xmlns="http://www.w3.org/2000/svg" xmlns:xlink="http://www.w3.org/1999/xlink" width="40.000000" height="40.000000" fill="none">
	<rect id="Component 1" width="40.000000" height="40.000000" x="0.000000" y="0.000000" />
	<path id="Vector" d="M13.9965 4.08801C9.11578 4.93988 5.32813 8.50379 4.30078 13.211C4.05734 14.3264 4 15.5509 4 19.6376C4 23.5897 4.05719 24.9184 4.27289 25.9757C4.9725 29.4067 7.35539 32.4855 10.5508 34.0873C11.4502 34.5382 12.8482 35.0082 13.8402 35.1933C14.4866 35.3139 15.2012 35.3355 19.3765 35.3607C24.2151 35.3899 25.1538 35.3554 26.3923 35.1028C30.4598 34.2734 33.9045 31.1986 35.2012 27.24C35.7553 25.5486 35.7543 25.5628 35.7543 19.5986C35.7543 14.2964 35.7527 14.2394 35.5738 13.4267C35.0342 10.9738 34.0677 9.19715 32.3196 7.44512C30.6366 5.75801 28.8838 4.78879 26.4317 4.18895C25.7777 4.02902 25.5614 4.02262 20.1684 4.00449C15.846 3.98996 14.4498 4.00887 13.9965 4.08801ZM29.6872 11.2861C29.7854 11.3549 29.8977 11.4951 29.9366 11.5976C29.9898 11.7377 29.6105 13.7114 28.41 19.5389C27.5314 23.8042 26.7924 27.3775 26.7677 27.4796C26.743 27.5818 26.6219 27.7664 26.4985 27.8898C26.3122 28.0761 26.2088 28.1142 25.8898 28.1142C25.5114 28.1142 25.4668 28.0859 23.0555 26.3161C21.7081 25.3271 20.5799 24.5272 20.5484 24.5387C20.5168 24.5501 19.935 25.0895 19.2555 25.7373C18.5759 26.3851 17.9234 26.9779 17.8054 27.0547C17.5533 27.2187 17.1335 27.1727 16.9444 26.9603C16.8781 26.886 16.3963 25.5185 15.8736 23.9215L14.9233 21.0179L13.8934 20.6929C10.6436 19.6671 10.1432 19.4953 10.0063 19.3583C9.81664 19.1687 9.80953 18.7325 9.99258 18.5184C10.1503 18.3339 29.0362 11.1732 29.3892 11.1642C29.4549 11.1625 29.589 11.2173 29.6872 11.2861ZM25.2074 14.6523C22.9363 16.0998 16.1386 20.4824 16.0776 20.5386C16.0405 20.5726 16.3215 21.6421 16.702 22.9153C17.1436 24.3933 17.4127 25.1794 17.4463 25.09C17.4754 25.0131 17.5571 24.3525 17.628 23.622C17.7016 22.8646 17.7968 22.2571 17.8495 22.2082C17.9002 22.1611 19.4008 20.7921 21.184 19.1663C25.4541 15.2729 26.4184 14.3666 26.4184 14.2464C26.4184 14.1695 26.2473 14.0425 26.158 14.0532C26.1509 14.0541 25.723 14.3237 25.2074 14.6523Z" fill="rgb(255,255,255)" fill-rule="evenodd" />
</svg>
