<?xml version="1.0" standalone="no"?>
<!DOCTYPE svg PUBLIC "-//W3C//DTD SVG 20010904//EN"
 "http://www.w3.org/TR/2001/REC-SVG-20010904/DTD/svg10.dtd">
<svg version="1.0" xmlns="http://www.w3.org/2000/svg"
 width="512.000000pt" height="512.000000pt" viewBox="0 0 512.000000 512.000000"
 preserveAspectRatio="xMidYMid meet">

<g transform="translate(0.000000,512.000000) scale(0.100000,-0.100000)"
fill="#000000" stroke="none">
<path d="M2321 5110 c-868 -84 -1644 -610 -2037 -1382 -139 -273 -221 -536
-266 -853 -20 -140 -17 -504 6 -660 39 -278 121 -541 247 -794 249 -502 647
-900 1150 -1150 815 -406 1779 -350 2539 147 297 194 579 482 771 788 74 116
184 342 234 478 51 138 110 376 131 531 23 157 26 521 6 660 -59 415 -191 769
-410 1099 -92 140 -185 254 -315 385 -399 403 -895 653 -1462 737 -122 18
-466 26 -594 14z m-37 -2103 c47 -31 56 -70 56 -242 l0 -155 100 -232 c55
-127 100 -240 100 -249 0 -31 -37 -41 -129 -37 -62 2 -95 8 -114 21 -16 10
-90 112 -167 227 -166 249 -180 286 -187 465 -9 203 14 227 202 223 87 -2 117
-7 139 -21z m625 7 c70 -28 75 -45 81 -249 l6 -180 97 -226 c53 -125 95 -234
91 -242 -7 -20 -36 -27 -122 -27 -121 0 -124 2 -273 227 -183 275 -203 326
-204 518 0 125 12 156 68 180 46 20 206 19 256 -1z"/>
</g>
</svg>
